<?xml version="1.0" encoding="UTF-8"?>
<!-- Generator: Adobe Illustrator 16.0.0, SVG Export Plug-In . SVG Version: 6.00 Build 0)  -->
<!DOCTYPE svg PUBLIC "-//W3C//DTD SVG 1.1//EN" "http://www.w3.org/Graphics/SVG/1.1/DTD/svg11.dtd">
<svg version="1.1" id="Layer_1" xmlns="http://www.w3.org/2000/svg" xmlns:xlink="http://www.w3.org/1999/xlink" x="0px" y="0px" width="256px" height="256px" viewBox="0 0 256 256" enable-background="new 0 0 256 256" xml:space="preserve">
<rect fill="#A05C94" width="256" height="256"/>
<path opacity="0.7" fill-rule="evenodd" clip-rule="evenodd" fill="#73467A" d="M62.752,159L0.017,222.485L0,256h163.669  c0,0,20.083-19.125,30.958-28.875C173.96,228.125,66.669,233,63.669,221C58.039,198.479,62.752,159,62.752,159z"/>
<g>
	<g>
		<path fill="#9B5C8F" d="M126.422,227.714H76.387c-8.428,0-15.285-6.857-15.285-15.286v-40.952    c-0.033-4.038,1.533-7.873,4.411-10.772c2.887-2.91,6.729-4.513,10.819-4.513h107.285c8.429,0,15.286,6.856,15.286,15.285v40.952    c0,8.429-6.857,15.286-15.286,15.286H149.61l6.826,16.711L126.422,227.714z"/>
		<path fill="#FFFFFF" d="M183.617,159.19c6.79,0,12.286,5.495,12.286,12.285v40.952c0,6.79-5.496,12.286-12.286,12.286h-38.473    l5.282,12.932L127.2,224.714H76.387c-6.79,0-12.285-5.496-12.285-12.286v-40.952c-0.055-6.735,5.441-12.285,12.23-12.285H183.617     M183.617,153.19H76.332c-4.896,0-9.495,1.918-12.949,5.399c-3.445,3.473-5.32,8.065-5.281,12.934v40.904    c0,10.083,8.203,18.286,18.285,18.286h49.256l21.865,12.174l14.938,8.317l-6.465-15.828l-1.905-4.663h29.541    c10.083,0,18.286-8.203,18.286-18.286v-40.952C201.903,161.394,193.7,153.19,183.617,153.19L183.617,153.19z"/>
	</g>
	<path fill="#FFFFFF" d="M70.676,170.343c0.754-1.023,1.885-1.562,3.395-1.67c2.748-0.215,4.309,1.077,4.688,3.881   c1.668,11.262,3.502,20.799,5.442,28.611L96,178.695c1.079-2.048,2.427-3.125,4.043-3.232c2.371-0.162,3.824,1.347,4.418,4.527   c1.346,7.165,3.072,13.255,5.12,18.428c1.399-13.686,3.771-23.55,7.11-29.637c0.811-1.51,1.996-2.265,3.558-2.37   c1.239-0.109,2.372,0.268,3.395,1.075c1.024,0.811,1.563,1.833,1.671,3.075c0.053,0.967-0.108,1.775-0.54,2.586   c-2.101,3.877-3.823,10.398-5.226,19.45c-1.348,8.782-1.834,15.628-1.51,20.53c0.107,1.348-0.106,2.533-0.646,3.557   c-0.646,1.186-1.613,1.833-2.855,1.939c-1.4,0.108-2.855-0.54-4.256-1.995c-5.012-5.118-9-12.771-11.91-22.954   c-3.502,6.899-6.087,12.069-7.758,15.518c-3.181,6.092-5.875,9.218-8.139,9.378c-1.455,0.108-2.692-1.131-3.771-3.716   c-2.747-7.06-5.711-20.693-8.889-40.901C69.652,172.554,69.92,171.313,70.676,170.343z"/>
	<path fill="#FFFFFF" d="M186.526,178.804c-1.938-3.395-4.795-5.441-8.621-6.25c-1.024-0.217-1.992-0.325-2.909-0.325   c-5.174,0-9.375,2.695-12.662,8.082c-2.804,4.583-4.203,9.647-4.203,15.198c0,4.148,0.861,7.704,2.584,10.668   c1.941,3.396,4.8,5.443,8.623,6.251c1.024,0.215,1.994,0.324,2.911,0.324c5.226,0,9.429-2.695,12.662-8.083   c2.801-4.632,4.204-9.699,4.204-15.251C189.115,185.216,188.254,181.713,186.526,178.804L186.526,178.804z M179.739,193.73   c-0.755,3.557-2.103,6.196-4.097,7.974c-1.562,1.401-3.018,1.995-4.365,1.726c-1.293-0.271-2.372-1.4-3.179-3.503   c-0.646-1.671-0.968-3.341-0.968-4.904c0-1.348,0.106-2.693,0.376-3.933c0.483-2.209,1.398-4.365,2.855-6.415   c1.778-2.639,3.665-3.715,5.604-3.338c1.294,0.268,2.371,1.401,3.18,3.502c0.646,1.67,0.971,3.342,0.971,4.903   C180.117,191.143,179.955,192.489,179.739,193.73L179.739,193.73z"/>
	<path fill="#FFFFFF" d="M152.743,178.804c-1.941-3.395-4.85-5.441-8.623-6.25c-1.022-0.217-1.994-0.325-2.911-0.325   c-5.172,0-9.375,2.695-12.661,8.082c-2.802,4.583-4.203,9.647-4.203,15.198c0,4.148,0.861,7.704,2.589,10.668   c1.936,3.396,4.794,5.443,8.619,6.251c1.024,0.215,1.992,0.324,2.91,0.324c5.225,0,9.431-2.695,12.661-8.083   c2.803-4.632,4.204-9.699,4.204-15.251C155.328,185.216,154.467,181.713,152.743,178.804L152.743,178.804z M145.953,193.73   c-0.755,3.557-2.103,6.196-4.095,7.974c-1.562,1.401-3.02,1.995-4.367,1.726c-1.294-0.271-2.37-1.4-3.18-3.503   c-0.646-1.671-0.97-3.341-0.97-4.904c0-1.348,0.11-2.693,0.378-3.933c0.485-2.209,1.401-4.365,2.857-6.415   c1.777-2.639,3.663-3.715,5.604-3.338c1.292,0.268,2.372,1.401,3.178,3.502c0.646,1.67,0.969,3.342,0.969,4.903   C146.328,191.143,146.221,192.489,145.953,193.73L145.953,193.73z"/>
</g>
<g>
	<path opacity="0.7" fill="#73467A" d="M25.391,26.495c0,0-1.625,0.203-3.141,2.047C20.531,30.261,0.016,50.776,0.016,50.776v62.333   c0,0,21.935-21.956,22.932-22.953c1.745-1.745,4.302-1.489,4.302-1.489l29.285,0.035L67.32,77.917c0,0,4.971-4.334,5.305-5.917   C69.75,69.625,25.391,26.495,25.391,26.495z"/>
	<path fill="#72007F" d="M71.607,70.802c0,3.354-2.44,6.068-5.45,6.068H24.864c-3.013,0-5.454-2.715-5.454-6.068V33.924   c0-3.349,2.441-6.066,5.454-6.066h41.293c3.01,0,5.45,2.717,5.45,6.066V70.802z"/>
	<path opacity="0.7" fill="#73467A" d="M25.391,88.828c0,0-1.625,0.203-3.141,2.047c-1.719,1.719-22.234,22.234-22.234,22.234   v94.445L67.32,140.25c0,0,4.971-4.334,5.305-5.917C69.75,131.958,25.391,88.828,25.391,88.828z"/>
	<path fill="#72007F" d="M71.607,133.135c0,3.354-2.44,6.068-5.45,6.068H24.864c-3.013,0-5.454-2.715-5.454-6.068V96.257   c0-3.349,2.441-6.066,5.454-6.066h41.293c3.01,0,5.45,2.717,5.45,6.066V133.135z"/>
	<path fill="#ACC943" d="M73.233,69.296c0,3.353-2.44,6.068-5.45,6.068H26.49c-3.013,0-5.454-2.715-5.454-6.068V32.418   c0-3.349,2.441-6.066,5.454-6.066h41.293c3.01,0,5.45,2.717,5.45,6.066V69.296z"/>
	<path fill-rule="evenodd" clip-rule="evenodd" fill="#FFFFFF" d="M68.771,41.59h-6.125L51.804,57.808   c-0.16,0.237-0.361,0.429-0.588,0.571c-0.341,0.284-0.779,0.456-1.258,0.456H31.91c-1.083,0-1.961-0.878-1.961-1.962   c0-1.084,0.878-1.962,1.961-1.962h17.111l1.568-2.345H28.605c-1.084,0-1.962-0.878-1.962-1.961s0.878-1.963,1.962-1.963h24.326   c0.091,0,0.18,0.007,0.268,0.02l1.662-2.484H26.775c-1.084,0-1.962-0.878-1.962-1.962c0-1.083,0.877-1.961,1.962-1.961h30.603   c0.034,0,0.068,0,0.104,0.002l2.401-3.591c0.176-0.262,0.403-0.467,0.66-0.614c0.326-0.242,0.73-0.385,1.167-0.385h7.062   c1.083,0,1.961,0.878,1.961,1.962S69.855,41.59,68.771,41.59z M36.624,60.41c1.88,0,3.405,1.525,3.405,3.406   c0,1.88-1.524,3.405-3.405,3.405s-3.405-1.524-3.405-3.405C33.219,61.935,34.744,60.41,36.624,60.41z M45.815,60.41   c1.88,0,3.405,1.525,3.405,3.406c0,1.88-1.524,3.405-3.405,3.405c-1.881,0-3.406-1.524-3.406-3.405   C42.409,61.935,43.934,60.41,45.815,60.41z"/>
	<path fill="#D20024" d="M73.233,131.634c0,3.354-2.44,6.068-5.45,6.068H26.49c-3.013,0-5.454-2.715-5.454-6.068V94.756   c0-3.349,2.441-6.066,5.454-6.066h41.293c3.01,0,5.45,2.717,5.45,6.066V131.634z"/>
	<path fill-rule="evenodd" clip-rule="evenodd" fill="#FFFFFF" d="M63.999,111.181c0-0.963-0.399-1.836-1.038-2.462l-13.021-10.96   c-1.348-1.348-3.534-1.348-4.881,0l-13.021,10.96c-0.639,0.625-1.038,1.499-1.038,2.462v15.82c0,1.52,1.23,2.75,2.75,2.75h27.5   c1.52,0,2.75-1.23,2.75-2.75V111.181L63.999,111.181z M38.011,108.437h18.976c0.838,0,1.512,0.674,1.512,1.513v2.613   c-0.006,0.33-0.138,0.653-0.392,0.908l-4.235,4.27l6.298,6.291c0.522,0.522,0.522,1.368,0,1.891c-0.523,0.522-1.369,0.522-1.891,0   l-6.483-6.483h-8.608l-6.469,6.483c-0.522,0.522-1.368,0.522-1.891,0c-0.522-0.523-0.522-1.368,0-1.891l6.291-6.291l-4.229-4.27   c-0.275-0.275-0.406-0.632-0.392-0.997v-2.523C36.499,109.111,37.172,108.437,38.011,108.437z"/>
	<path opacity="0.3" fill-rule="evenodd" clip-rule="evenodd" d="M56.105,145.901c0.191-1.883,0.351-3.597,0.542-5.309   c0.528-4.739,1.047-9.484,1.613-14.22c0.281-2.337,1.159-4.447,2.909-6.066c2.405-2.228,5.24-2.366,8.131-1.265   c2.758,1.05,4.169,3.3,4.359,6.166c0.131,1.948-0.099,3.925-0.241,5.882c-0.14,1.904-0.375,3.803-0.581,5.811   c0.461-0.002,0.714,0,0.969,0c3.409,0,6.458,0.738,8.363,3.96c0.117,0.194,0.576,0.29,0.859,0.264   c2.09-0.189,4.077,0.106,5.894,1.197c1.337,0.803,2.253,1.966,2.869,3.396c0.094,0.216,0.445,0.468,0.661,0.454   c5.242-0.324,8.483,3.59,8.588,8.13c0.054,2.328-0.296,4.669-0.499,7.002c-0.35,3.972-0.762,7.924-2.008,11.756   c-2.26,6.928-6.068,12.859-11.192,17.981c-0.171,0.171-0.318,0.363-0.472,0.55c-0.647,0.784-1.467,1.045-2.488,1.049   c-8.328,0.032-16.38,0.308-24.752-0.549c-1.029-0.104-1.709-0.684-2.193-1.566c-4.489-8.199-8.231-18.866-10.859-27.834   c-0.757-2.575-1.651-5.133-2.747-7.58c-2.446-5.463,1.187-9.869,6.123-10.477C52.061,144.371,54.06,144.802,56.105,145.901z"/>
	<g>
		<path fill-rule="evenodd" clip-rule="evenodd" fill="#FFFFFF" d="M61.226,150.479c0,0,0.193-25.894,2.028-27.922    c1.836-2.029,7.633-3.672,8.504,0.868c0.869,4.543,0.772,23.094,0.772,23.094s-0.677-10.145,5.217-9.372    c5.895,0.772,5.413,8.211,5.413,8.211s2.801-7.05,6.568-4.539c3.77,2.513,3.77,8.502,3.77,8.502s0.675-7.44,5.12-4.541    c4.444,2.898,3.961,10.145,2.416,22.415c-1.545,12.271-7.344,20.098-13.817,19.906c-6.473-0.196-17.778-0.678-19.807-0.678    c-2.028,0-5.99-5.508-9.274-13.045c-3.286-7.534-6.185-16.522-7.538-18.936c-1.352-2.417,0.774-6.476,3.479-6.861    C56.781,147.194,61.226,150.479,61.226,150.479z"/>
		<path fill-rule="evenodd" clip-rule="evenodd" d="M59.339,145.55c0-1.893-0.015-3.612,0.002-5.334    c0.046-4.771,0.082-9.542,0.166-14.312c0.041-2.354,0.703-4.54,2.278-6.33c2.167-2.458,4.974-2.884,7.962-2.08    c2.849,0.764,4.481,2.86,4.961,5.692c0.325,1.923,0.3,3.914,0.354,5.876c0.055,1.908,0.013,3.82,0.013,5.836    c0.456-0.046,0.709-0.069,0.961-0.097c3.391-0.343,6.502,0.086,8.722,3.094c0.134,0.183,0.603,0.23,0.884,0.178    c2.059-0.4,4.065-0.308,5.984,0.595c1.41,0.658,2.44,1.728,3.199,3.087c0.113,0.204,0.487,0.422,0.701,0.387    c5.181-0.854,8.804,2.711,9.367,7.216c0.289,2.313,0.179,4.676,0.212,7.017c0.056,3.988,0.044,7.964-0.807,11.899    c-1.548,7.121-4.735,13.41-9.315,19.022c-0.151,0.188-0.277,0.394-0.413,0.597c-0.565,0.845-1.351,1.292-2.372,1.292    c-8.413,0-16.827-0.006-25.241-0.007c-1.036,0-1.771-0.508-2.34-1.338c-5.296-7.703-9.535-15.968-13.059-24.623    c-1.012-2.485-2.162-4.939-3.498-7.262c-2.987-5.188,0.18-9.939,5.03-11.044C55.16,144.439,57.193,144.664,59.339,145.55z     M64.745,149.435c-0.001,1.184,0.028,2.379-0.11,3.548c-0.146,1.233-1.095,2.087-2.222,2.234c-1.33,0.175-2.367-0.406-2.971-1.585    c-0.366-0.714-0.734-1.452-1.244-2.061c-1.225-1.46-3.252-1.803-4.819-0.912c-1.024,0.584-1.21,1.226-0.66,2.269    c0.628,1.188,1.318,2.351,1.87,3.575c1.932,4.291,3.794,8.613,5.724,12.906c2.105,4.683,4.796,9.022,7.708,13.237    c0.543,0.785,1.073,1.076,2.012,1.067c6.076-0.047,12.152-0.099,18.225,0.011c1.667,0.03,2.727-0.413,3.755-1.759    c4.003-5.231,6.638-11.055,7.261-17.603c0.423-4.438,0.304-8.933,0.311-13.4c0.001-0.854-0.42-1.771-0.843-2.552    c-0.377-0.695-1.167-1.005-1.961-0.813c-0.808,0.194-0.923,0.989-1.045,1.668c-0.115,0.659-0.125,1.339-0.177,2.012    c-0.111,1.46-1.321,2.519-2.845,2.487c-1.404-0.031-2.566-1.161-2.583-2.574c-0.009-0.858,0.035-1.726,0.136-2.576    c0.156-1.322,0.27-2.637-0.175-3.918c-0.378-1.087-1.58-1.578-3.053-1.295c-0.78,0.149-1.172,0.794-1.168,1.951    c0.004,1.107,0.048,2.212,0.024,3.316c-0.028,1.389-1.164,2.52-2.579,2.624c-1.298,0.097-2.739-0.943-2.818-2.264    c-0.126-2.145-0.041-4.3-0.111-6.448c-0.021-0.611-0.085-1.451-0.471-1.771c-0.957-0.786-2.206-0.884-3.356-0.425    c-0.971,0.39-1.168,1.353-1.157,2.306c0.02,1.617,0.107,3.231,0.126,4.85c0.026,1.816-1.351,3.135-3.059,2.969    c-1.406-0.136-2.409-1.235-2.479-2.912c-0.087-2.067-0.053-4.141-0.098-6.211c-0.081-3.718-0.171-7.438-0.279-11.156    c-0.059-1.937-0.104-3.876-0.274-5.807c-0.102-1.156-0.611-1.607-1.495-1.727c-1.038-0.14-1.926,0.247-2.33,1.189    c-0.268,0.628-0.449,1.342-0.455,2.02C65.021,130.244,64.756,145.931,64.745,149.435z"/>
	</g>
</g>
<g>
	<path opacity="0.2" d="M241.387,34.414c-2.44,0-4.417,1.916-4.551,4.324H122.199v127.203h119.046V43.557   c0.048,0.002,0.093,0.014,0.142,0.014c2.531,0,4.58-2.049,4.58-4.578S243.918,34.414,241.387,34.414z"/>
	<rect x="114.699" y="24.738" fill="#FFFFFF" width="119.046" height="133.209"/>
	<rect x="129.15" y="39.805" fill="#CCCCCC" width="90.143" height="3.721"/>
	<rect x="190.65" y="133.967" fill="#CCCCCC" width="28.643" height="10.232"/>
	<g>
		<path fill="#4D4D4D" d="M238.133,25.075c0,2.529-2.049,4.579-4.58,4.579c-2.527,0-4.576-2.05-4.576-4.579    c0-2.528,2.049-4.578,4.576-4.578C236.084,20.497,238.133,22.547,238.133,25.075z"/>
		<path fill="#FFFFFF" d="M234.244,25.075l1.416-1.416c0.19-0.191,0.19-0.5,0-0.69c-0.191-0.19-0.499-0.19-0.689,0l-1.418,1.416    l-1.416-1.416c-0.189-0.19-0.498-0.19-0.689,0c-0.189,0.19-0.189,0.499,0,0.69l1.416,1.416l-1.416,1.416    c-0.189,0.19-0.189,0.499,0,0.69c0.096,0.096,0.222,0.143,0.345,0.143c0.127,0,0.251-0.047,0.345-0.143l1.416-1.417l1.418,1.417    c0.096,0.096,0.219,0.143,0.344,0.143c0.126,0,0.251-0.047,0.346-0.143c0.19-0.191,0.19-0.5,0-0.69L234.244,25.075z"/>
	</g>
	<path fill="#CCCCCC" d="M129.287,51.952v13.702h90.143V51.952H129.287z M217.858,64.344h-87V53.341h87V64.344z"/>
	<path fill="#CCCCCC" d="M129.287,69.621v13.702h90.143V69.621H129.287z M217.858,82.013h-87V71.01h87V82.013z"/>
	<path fill="#CCCCCC" d="M129.287,87.289v40.722h90.143V87.289H129.287z M217.858,126.702h-87V88.678h87V126.702z"/>
</g>
<polygon opacity="0.3" points="64.436,120.563 114.699,24.738 114.699,157.947 "/>
</svg>